<svg width="24" height="24" viewBox="0 0 24 24" fill="#000"
    xmlns="http://www.w3.org/2000/svg">
    <path fill="#000" fill-rule="evenodd" clip-rule="evenodd" d="M13 14C13.5523 14 14 14.4477 14 15V17C14 17.5523 13.5523 18 13 18V20C13 20.5523 12.5523 21 12 21C11.4477 21 11 20.5523 11 20V18C10.4477 18 10 17.5523 10 17V15C10 14.4477 10.4477 14 11 14V4C11 3.44772 11.4477 3 12 3C12.5523 3 13 3.44772 13 4V14ZM6 6C6.55228 6 7 6.44772 7 7V9C7 9.55228 6.55228 10 6 10V20C6 20.5523 5.55228 21 5 21C4.44772 21 4 20.5523 4 20V10C3.44772 10 3 9.55228 3 9V7C3 6.44772 3.44772 6 4 6V4C4 3.44772 4.44772 3 5 3C5.55228 3 6 3.44772 6 4V6ZM20 10C20.5523 10 21 10.4477 21 11V13C21 13.5523 20.5523 14 20 14V20C20 20.5523 19.5523 21 19 21C18.4477 21 18 20.5523 18 20V14C17.4477 14 17 13.5523 17 13V11C17 10.4477 17.4477 10 18 10V4C18 3.44772 18.4477 3 19 3C19.5523 3 20 3.44772 20 4V10Z"></path>
</svg>